<svg width="24" height="25" viewBox="0 0 24 25" fill="none" xmlns="http://www.w3.org/2000/svg">
<path d="M22 12.296C22 6.78602 17.51 2.29602 12 2.29602C6.49 2.29602 2 6.78602 2 12.296C2 15.196 3.25 17.806 5.23 19.636C5.23 19.646 5.23 19.646 5.22 19.656C5.32 19.756 5.44 19.836 5.54 19.926C5.6 19.976 5.65 20.026 5.71 20.066C5.89 20.216 6.09 20.356 6.28 20.496C6.35 20.546 6.41 20.586 6.48 20.636C6.67 20.766 6.87 20.886 7.08 20.996C7.15 21.036 7.23 21.086 7.3 21.126C7.5 21.236 7.71 21.336 7.93 21.426C8.01 21.466 8.09 21.506 8.17 21.536C8.39 21.626 8.61 21.706 8.83 21.776C8.91 21.806 8.99 21.836 9.07 21.856C9.31 21.926 9.55 21.986 9.79 22.046C9.86 22.066 9.93 22.086 10.01 22.096C10.29 22.156 10.57 22.196 10.86 22.226C10.9 22.226 10.94 22.236 10.98 22.246C11.32 22.276 11.66 22.296 12 22.296C12.34 22.296 12.68 22.276 13.01 22.246C13.05 22.246 13.09 22.236 13.13 22.226C13.42 22.196 13.7 22.156 13.98 22.096C14.05 22.086 14.12 22.056 14.2 22.046C14.44 21.986 14.69 21.936 14.92 21.856C15 21.826 15.08 21.796 15.16 21.776C15.38 21.696 15.61 21.626 15.82 21.536C15.9 21.506 15.98 21.466 16.06 21.426C16.27 21.336 16.48 21.236 16.69 21.126C16.77 21.086 16.84 21.036 16.91 20.996C17.11 20.876 17.31 20.766 17.51 20.636C17.58 20.596 17.64 20.546 17.71 20.496C17.91 20.356 18.1 20.216 18.28 20.066C18.34 20.016 18.39 19.966 18.45 19.926C18.56 19.836 18.67 19.746 18.77 19.656C18.77 19.646 18.77 19.646 18.76 19.636C20.75 17.806 22 15.196 22 12.296ZM16.94 17.266C14.23 15.446 9.79 15.446 7.06 17.266C6.62 17.556 6.26 17.896 5.96 18.266C4.44 16.726 3.5 14.616 3.5 12.296C3.5 7.60602 7.31 3.79602 12 3.79602C16.69 3.79602 20.5 7.60602 20.5 12.296C20.5 14.616 19.56 16.726 18.04 18.266C17.75 17.896 17.38 17.556 16.94 17.266Z" fill="white"/>
<path d="M12 7.22607C9.93 7.22607 8.25 8.90607 8.25 10.9761C8.25 13.0061 9.84 14.6561 11.95 14.7161C11.98 14.7161 12.02 14.7161 12.04 14.7161C12.06 14.7161 12.09 14.7161 12.11 14.7161C12.12 14.7161 12.13 14.7161 12.13 14.7161C14.15 14.6461 15.74 13.0061 15.75 10.9761C15.75 8.90607 14.07 7.22607 12 7.22607Z" fill="white"/>
</svg>
