<svg width="24" height="25" viewBox="0 0 24 25" fill="none" xmlns="http://www.w3.org/2000/svg">
<path d="M18.6699 2.2959H16.7699C14.5899 2.2959 13.4399 3.4459 13.4399 5.6259V7.5259C13.4399 9.7059 14.5899 10.8559 16.7699 10.8559H18.6699C20.8499 10.8559 21.9999 9.7059 21.9999 7.5259V5.6259C21.9999 3.4459 20.8499 2.2959 18.6699 2.2959Z" fill="white"/>
<path d="M7.24 13.7258H5.34C3.15 13.7258 2 14.8758 2 17.0558V18.9558C2 21.1458 3.15 22.2958 5.33 22.2958H7.23C9.41 22.2958 10.56 21.1458 10.56 18.9658V17.0658C10.57 14.8758 9.42 13.7258 7.24 13.7258Z" fill="white"/>
<path d="M6.29 10.8759C8.6593 10.8759 10.58 8.9552 10.58 6.5859C10.58 4.2166 8.6593 2.2959 6.29 2.2959C3.9207 2.2959 2 4.2166 2 6.5859C2 8.9552 3.9207 10.8759 6.29 10.8759Z" fill="white"/>
<path d="M17.7099 22.2958C20.0792 22.2958 21.9999 20.3751 21.9999 18.0058C21.9999 15.6365 20.0792 13.7158 17.7099 13.7158C15.3406 13.7158 13.4199 15.6365 13.4199 18.0058C13.4199 20.3751 15.3406 22.2958 17.7099 22.2958Z" fill="white"/>
</svg>
