<svg width="24" height="25" viewBox="0 0 24 25" fill="none" xmlns="http://www.w3.org/2000/svg">
<path d="M16 4.54688C16 5.78688 14.99 6.79688 13.75 6.79688H10.25C9.63 6.79688 9.07 6.54688 8.66 6.13688C8.25 5.72688 8 5.16687 8 4.54688C8 3.30687 9.01 2.29688 10.25 2.29688H13.75C14.37 2.29688 14.93 2.54688 15.34 2.95688C15.75 3.36688 16 3.92687 16 4.54688Z" fill="white"/>
<path d="M18.83 5.32562C18.6 5.13562 18.34 4.98562 18.06 4.87562C17.77 4.76562 17.48 4.99562 17.42 5.29562C17.08 7.00562 15.57 8.29562 13.75 8.29562H10.25C9.25 8.29562 8.31 7.90562 7.6 7.19562C7.08 6.67562 6.72 6.01562 6.58 5.30562C6.52 5.00562 6.22 4.76562 5.93 4.88562C4.77 5.35562 4 6.41562 4 8.54562V18.2956C4 21.2956 5.79 22.2956 8 22.2956H16C18.21 22.2956 20 21.2956 20 18.2956V8.54562C20 6.91562 19.55 5.91562 18.83 5.32562ZM8 12.5456H12C12.41 12.5456 12.75 12.8856 12.75 13.2956C12.75 13.7056 12.41 14.0456 12 14.0456H8C7.59 14.0456 7.25 13.7056 7.25 13.2956C7.25 12.8856 7.59 12.5456 8 12.5456ZM16 18.0456H8C7.59 18.0456 7.25 17.7056 7.25 17.2956C7.25 16.8856 7.59 16.5456 8 16.5456H16C16.41 16.5456 16.75 16.8856 16.75 17.2956C16.75 17.7056 16.41 18.0456 16 18.0456Z" fill="white"/>
</svg>
