<svg width="24" height="24" viewBox="0 0 24 24" fill="none" xmlns="http://www.w3.org/2000/svg">
<path d="M9 2C6.38 2 4.25 4.13 4.25 6.75C4.25 9.32 6.26 11.4 8.88 11.49C8.96 11.48 9.04 11.48 9.1 11.49C9.12 11.49 9.13 11.49 9.15 11.49C9.16 11.49 9.16 11.49 9.17 11.49C11.73 11.4 13.74 9.32 13.75 6.75C13.75 4.13 11.62 2 9 2Z" fill="white"/>
<path d="M14.08 14.1489C11.29 12.2889 6.73999 12.2889 3.92999 14.1489C2.65999 14.9989 1.95999 16.1489 1.95999 17.3789C1.95999 18.6089 2.65999 19.7489 3.91999 20.5889C5.31999 21.5289 7.15999 21.9989 8.99999 21.9989C10.84 21.9989 12.68 21.5289 14.08 20.5889C15.34 19.7389 16.04 18.5989 16.04 17.3589C16.03 16.1289 15.34 14.9889 14.08 14.1489Z" fill="white"/>
<path d="M19.99 7.33815C20.15 9.27815 18.77 10.9781 16.86 11.2081C16.85 11.2081 16.85 11.2081 16.84 11.2081H16.81C16.75 11.2081 16.69 11.2081 16.64 11.2281C15.67 11.2781 14.78 10.9681 14.11 10.3981C15.14 9.47815 15.73 8.09815 15.61 6.59815C15.54 5.78815 15.26 5.04815 14.84 4.41815C15.22 4.22815 15.66 4.10815 16.11 4.06815C18.07 3.89815 19.82 5.35815 19.99 7.33815Z" fill="white"/>
<path d="M21.99 16.5904C21.91 17.5604 21.29 18.4004 20.25 18.9704C19.25 19.5204 17.99 19.7804 16.74 19.7504C17.46 19.1004 17.88 18.2904 17.96 17.4304C18.06 16.1904 17.47 15.0004 16.29 14.0504C15.62 13.5204 14.84 13.1004 13.99 12.7904C16.2 12.1504 18.98 12.5804 20.69 13.9604C21.61 14.7004 22.08 15.6304 21.99 16.5904Z" fill="white"/>
</svg>
