<svg width="24" height="25" viewBox="0 0 24 25" fill="none" xmlns="http://www.w3.org/2000/svg">
<path d="M10.4416 0.368137C6.35599 0.928225 2.89545 3.44362 1.14018 7.13419C0.365057 8.75945 0 10.4197 0 12.295C0 13.7502 0.160025 14.7604 0.600094 16.1056C2.03532 20.4663 5.86092 23.6168 10.4716 24.2219C11.2418 24.3219 12.767 24.3219 13.5371 24.2219C17.7128 23.6718 21.2683 21.0314 22.9786 17.2108C23.6887 15.6205 24.0037 14.1003 24.0037 12.295C24.0037 10.8348 23.8437 9.82961 23.3987 8.4694C22.8336 6.74913 21.8384 5.13388 20.5282 3.81868C18.6279 1.91338 16.2175 0.723192 13.5371 0.368137C12.812 0.273121 11.1317 0.273121 10.4416 0.368137ZM12.3969 5.97901C12.707 6.21405 12.797 6.47409 12.802 7.1492V7.57926L13.2321 7.7893C13.7621 8.05434 14.1572 8.4344 14.4223 8.94448C14.5823 9.24452 14.6073 9.33954 14.5873 9.50956C14.5323 9.90463 14.2272 10.1697 13.8272 10.1697C13.5071 10.1697 13.3471 10.0697 13.122 9.7246C12.887 9.37454 12.752 9.23952 12.502 9.12951C11.9069 8.86446 11.1817 9.15451 10.9317 9.7546C10.7567 10.1697 10.8917 10.8398 11.2067 11.1298C11.3968 11.3048 11.7468 11.4349 12.1269 11.4699C13.3421 11.5949 14.3222 12.375 14.6773 13.5052C14.9623 14.4153 14.7073 15.4155 13.9972 16.1456C13.7521 16.4006 13.2521 16.7257 12.992 16.8057L12.802 16.8607V17.2908C12.797 17.8659 12.732 18.1359 12.537 18.3359C12.1119 18.776 11.3968 18.561 11.2568 17.9459C11.2268 17.8209 11.2017 17.5358 11.2017 17.3108V16.9007L10.8217 16.7207C10.0866 16.3806 9.35646 15.4755 9.41647 14.9654C9.46148 14.5704 9.78153 14.2803 10.1766 14.2803C10.4616 14.2803 10.6867 14.4153 10.8517 14.6854C11.2017 15.2655 11.4918 15.4555 12.0019 15.4555C12.3669 15.4555 12.672 15.3205 12.912 15.0554C13.3121 14.6104 13.3071 13.8902 12.892 13.4252C12.657 13.1551 12.4169 13.0551 11.8619 13.0001C11.0767 12.9201 10.5767 12.6801 10.0466 12.145C9.51649 11.6049 9.25144 10.9698 9.25144 10.2197C9.25144 9.0895 9.91655 8.06934 10.9017 7.68428L11.2017 7.56926V7.1442C11.2067 6.40908 11.3418 6.08903 11.7268 5.914C11.9169 5.82399 12.2269 5.85899 12.3969 5.97901Z" fill="white"/>
</svg>
