<svg width="24" height="24" viewBox="0 0 24 24" fill="none" xmlns="http://www.w3.org/2000/svg">
<path d="M20 12V18C20 20.21 18.21 22 16 22H8C5.79 22 4 20.21 4 18V12C4 11.45 4.45 11 5 11H6.97C7.52 11 7.97 11.45 7.97 12V15.14C7.97 15.88 8.38 16.56 9.03 16.91C9.32 17.07 9.64 17.15 9.97 17.15C10.35 17.15 10.73 17.04 11.06 16.82L12.01 16.2L12.89 16.79C13.5 17.2 14.28 17.25 14.93 16.9C15.59 16.55 16 15.88 16 15.13V12C16 11.45 16.45 11 17 11H19C19.55 11 20 11.45 20 12Z" fill="white"/>
<path d="M21.5 7V8C21.5 9.1 20.97 10 19.5 10H4.5C2.97 10 2.5 9.1 2.5 8V7C2.5 5.9 2.97 5 4.5 5H19.5C20.97 5 21.5 5.9 21.5 7Z" fill="white"/>
<path d="M11.64 5.00141H6.12C5.78 4.63141 5.79 4.06141 6.15 3.70141L7.57 2.28141C7.94 1.91141 8.55 1.91141 8.92 2.28141L11.64 5.00141Z" fill="white"/>
<path d="M17.87 5.00141H12.35L15.07 2.28141C15.44 1.91141 16.05 1.91141 16.42 2.28141L17.84 3.70141C18.2 4.06141 18.21 4.63141 17.87 5.00141Z" fill="white"/>
</svg>
