<svg width="42" height="42" viewBox="0 0 42 42" fill="none" xmlns="http://www.w3.org/2000/svg">
<rect x="0.5" y="0.5" width="41" height="41" rx="20.5" fill="#90A0C8"/>
<path d="M26.25 14.4186H15C12.2375 14.4186 10 16.4324 10 18.9186V14.8573C10 12.5623 12.0625 10.7061 14.6125 10.7061H21.6375C24.1875 10.7061 26.25 12.1236 26.25 14.4186Z" fill="#4761A3"/>
<path opacity="0.4" d="M29.35 21.2252C28.725 21.7764 28.425 22.6089 28.675 23.4527C28.9875 24.4989 30.1375 25.1627 31.3375 25.1627H32.5V26.7939C32.5 29.2802 30.2625 31.2939 27.5 31.2939H15C12.2375 31.2939 10 29.2802 10 26.7939V18.9189C10 16.4327 12.2375 14.4189 15 14.4189H27.5C30.25 14.4189 32.5 16.4439 32.5 18.9189V20.5501H31.15C30.45 20.5501 29.8125 20.7977 29.35 21.2252Z" fill="#4761A3"/>
<path d="M35 21.6973V24.0148C35 24.6448 34.425 25.1623 33.7125 25.1623H31.3C29.95 25.1623 28.7125 24.2736 28.6 23.0586C28.525 22.3499 28.825 21.6861 29.35 21.2248C29.8125 20.7973 30.45 20.5498 31.15 20.5498H33.7125C34.425 20.5498 35 21.0673 35 21.6973Z" fill="#4761A3"/>
<path d="M23.75 20.8877H16.25C15.7375 20.8877 15.3125 20.5052 15.3125 20.0439C15.3125 19.5827 15.7375 19.2002 16.25 19.2002H23.75C24.2625 19.2002 24.6875 19.5827 24.6875 20.0439C24.6875 20.5052 24.2625 20.8877 23.75 20.8877Z" fill="#4761A3"/>
</svg>
