<svg width="24" height="25" viewBox="0 0 24 25" fill="none" xmlns="http://www.w3.org/2000/svg">
<g id="vuesax/outline/box">
<g id="box">
<path id="Vector" d="M12 13.596C11.87 13.596 11.74 13.566 11.62 13.496L2.78999 8.386C2.43999 8.176 2.30999 7.716 2.51999 7.356C2.72999 6.996 3.18999 6.876 3.54999 7.086L12 11.976L20.4 7.116C20.76 6.906 21.22 7.036 21.43 7.386C21.64 7.746 21.51 8.206 21.16 8.416L12.39 13.496C12.26 13.556 12.13 13.596 12 13.596Z" fill="#0C0903"/>
<path id="Vector_2" d="M12 22.6561C11.59 22.6561 11.25 22.3161 11.25 21.9061V12.8361C11.25 12.4261 11.59 12.0861 12 12.0861C12.41 12.0861 12.75 12.4261 12.75 12.8361V21.9061C12.75 22.3161 12.41 22.6561 12 22.6561Z" fill="#0C0903"/>
<path id="Vector_3" d="M12 23.046C11.12 23.046 10.25 22.856 9.56 22.476L4.22 19.506C2.77 18.706 1.64 16.776 1.64 15.116V9.46602C1.64 7.80602 2.77 5.88602 4.22 5.07602L9.56 2.11602C10.93 1.35602 13.07 1.35602 14.44 2.11602L19.78 5.08602C21.23 5.88602 22.36 7.81602 22.36 9.47602V15.126C22.36 16.786 21.23 18.706 19.78 19.516L14.44 22.476C13.75 22.856 12.88 23.046 12 23.046ZM12 3.04602C11.37 3.04602 10.75 3.17602 10.29 3.42602L4.95 6.39602C3.99 6.92602 3.14 8.36602 3.14 9.46602V15.116C3.14 16.216 3.99 17.656 4.95 18.196L10.29 21.166C11.2 21.676 12.8 21.676 13.71 21.166L19.05 18.196C20.01 17.656 20.86 16.226 20.86 15.116V9.46602C20.86 8.36602 20.01 6.92602 19.05 6.38602L13.71 3.41602C13.25 3.17602 12.63 3.04602 12 3.04602Z" fill="#0C0903"/>
</g>
</g>
</svg>
