<svg width="24" height="24" viewBox="0 0 24 24" fill="none" xmlns="http://www.w3.org/2000/svg">
<rect width="24" height="24" rx="4" fill="#224191"/>
<path d="M17.3909 6.31052C17.4777 6.2122 17.5814 6.1341 17.6958 6.08078C17.8102 6.02746 17.9331 6 18.0572 6C18.1813 6 18.3041 6.02746 18.4185 6.08078C18.5329 6.1341 18.6366 6.2122 18.7235 6.31052C19.0875 6.71855 19.0926 7.37789 18.7362 7.79297L11.2104 17.6619C11.1249 17.766 11.0213 17.8496 10.9057 17.9077C10.7901 17.9658 10.665 17.9972 10.5381 17.9998C10.4112 18.0025 10.2852 17.9764 10.1677 17.9231C10.0503 17.8699 9.94381 17.7906 9.85491 17.6901L5.27554 12.5425C5.09893 12.3427 5 12.074 5 11.7942C5 11.5144 5.09893 11.2457 5.27554 11.0459C5.3624 10.9476 5.46607 10.8695 5.58048 10.8162C5.69489 10.7629 5.81773 10.7354 5.94183 10.7354C6.06592 10.7354 6.18877 10.7629 6.30318 10.8162C6.41758 10.8695 6.52125 10.9476 6.60811 11.0459L10.4926 15.4128L17.3654 6.34158C17.3733 6.33067 17.3818 6.32029 17.3909 6.31052Z" fill="white"/>
</svg>
