<svg width="70" height="37" viewBox="0 0 70 37" fill="none" xmlns="http://www.w3.org/2000/svg">
<path d="M0 8.5C0 4.08172 3.58172 0.5 8 0.5H62C66.4183 0.5 70 4.08172 70 8.5V28.5C70 32.9183 66.4183 36.5 62 36.5H8C3.58172 36.5 0 32.9183 0 28.5V8.5Z" fill="#EDEDED"/>
<g clip-path="url(#clip0_1302_24018)">
<g clip-path="url(#clip1_1302_24018)">
<mask id="mask0_1302_24018" style="mask-type:luminance" maskUnits="userSpaceOnUse" x="4" y="4" width="28" height="29">
<rect x="4" y="4.5" width="28" height="28" fill="white"/>
</mask>
<g mask="url(#mask0_1302_24018)">
<path fill-rule="evenodd" clip-rule="evenodd" d="M4 4.5V32.5H32V4.5H4Z" fill="#3D58DB"/>
<mask id="mask1_1302_24018" style="mask-type:luminance" maskUnits="userSpaceOnUse" x="4" y="4" width="28" height="29">
<path fill-rule="evenodd" clip-rule="evenodd" d="M4 4.5V32.5H32V4.5H4Z" fill="white"/>
</mask>
<g mask="url(#mask1_1302_24018)">
<path fill-rule="evenodd" clip-rule="evenodd" d="M4 4.5V13.8333H32V4.5H4Z" fill="#3D58DB"/>
<path fill-rule="evenodd" clip-rule="evenodd" d="M4 23.1666V32.5H32V23.1666H4Z" fill="#3D58DB"/>
</g>
</g>
</g>
<rect x="4" y="4.5" width="28" height="28" rx="14" fill="url(#paint0_linear_1302_24018)" style="mix-blend-mode:overlay"/>
<rect x="4.5" y="5" width="27" height="27" rx="13.5" stroke="black" stroke-opacity="0.1"/>
<path d="M18 6.5L18.449 7.88197H19.9021L18.7265 8.73607L19.1756 10.118L18 9.26393L16.8244 10.118L17.2735 8.73607L16.0979 7.88197H17.551L18 6.5Z" fill="#FBF600"/>
<path d="M18 26.5L18.449 27.882H19.9021L18.7265 28.7361L19.1756 30.118L18 29.2639L16.8244 30.118L17.2735 28.7361L16.0979 27.882H17.551L18 26.5Z" fill="#FBF600"/>
<path d="M6 18.5L7.38197 18.051L7.38197 16.5979L8.23607 17.7735L9.61803 17.3244L8.76393 18.5L9.61803 19.6756L8.23607 19.2265L7.38197 20.4021L7.38197 18.949L6 18.5Z" fill="#FBF600"/>
<path d="M26 18.5L27.382 18.051L27.382 16.5979L28.2361 17.7735L29.618 17.3244L28.7639 18.5L29.618 19.6756L28.2361 19.2265L27.382 20.4021L27.382 18.949L26 18.5Z" fill="#FBF600"/>
<path d="M7.60767 12.5L9.029 12.8021L9.75554 11.5437L9.90743 12.9888L11.3288 13.2909L10.0013 13.882L10.1532 15.3271L9.18089 14.2472L7.85343 14.8383L8.57997 13.5799L7.60767 12.5Z" fill="#FBF600"/>
<path d="M24.9282 22.5L26.3496 22.8021L27.0761 21.5437L27.228 22.9888L28.6493 23.2909L27.3219 23.882L27.4737 25.3271L26.5014 24.2472L25.174 24.8383L25.9005 23.5799L24.9282 22.5Z" fill="#FBF600"/>
<path d="M11.9999 8.10767L13.0797 9.07997L14.3381 8.35343L13.7471 9.68089L14.827 10.6532L13.3818 10.5013L12.7908 11.8288L12.4887 10.4074L11.0436 10.2555L12.302 9.529L11.9999 8.10767Z" fill="#FBF600"/>
<path d="M21.9999 25.4282L23.0797 26.4005L24.3381 25.674L23.7471 27.0014L24.827 27.9737L23.3818 27.8219L22.7908 29.1493L22.4887 27.728L21.0436 27.5761L22.302 26.8496L21.9999 25.4282Z" fill="#FBF600"/>
<path d="M23.9999 8.10767L23.6978 9.529L24.9562 10.2555L23.511 10.4074L23.2089 11.8288L22.6179 10.5013L21.1728 10.6532L22.2526 9.68089L21.6616 8.35343L22.92 9.07997L23.9999 8.10767Z" fill="#FBF600"/>
<path d="M13.9999 25.4282L13.6978 26.8496L14.9562 27.5761L13.511 27.728L13.2089 29.1493L12.6179 27.8219L11.1728 27.9737L12.2526 27.0014L11.6616 25.674L12.92 26.4005L13.9999 25.4282Z" fill="#FBF600"/>
<path d="M28.3921 12.5L27.4198 13.5798L28.1463 14.8383L26.8189 14.2472L25.8466 15.3271L25.9985 13.882L24.671 13.2909L26.0923 12.9888L26.2442 11.5437L26.9708 12.8021L28.3921 12.5Z" fill="#FBF600"/>
<path d="M11.0715 22.5L10.0992 23.5798L10.8258 24.8383L9.49831 24.2472L8.52601 25.3271L8.6779 23.882L7.35044 23.2909L8.77177 22.9888L8.92366 21.5437L9.6502 22.8021L11.0715 22.5Z" fill="#FBF600"/>
</g>
<rect x="4" y="4.5" width="28" height="28" rx="14" fill="url(#paint1_linear_1302_24018)" style="mix-blend-mode:overlay"/>
<rect x="4.5" y="5" width="27" height="27" rx="13.5" stroke="black" stroke-opacity="0.1"/>
<path d="M42.646 15.058V17.914H46.006V19.216H42.646V22.198H46.426V23.5H41.05V13.756H46.426V15.058H42.646ZM49.6938 13.77V19.972C49.6938 20.7093 49.8851 21.2647 50.2678 21.638C50.6598 22.0113 51.2011 22.198 51.8918 22.198C52.5918 22.198 53.1331 22.0113 53.5158 21.638C53.9078 21.2647 54.1038 20.7093 54.1038 19.972V13.77H55.6998V19.944C55.6998 20.7373 55.5271 21.4093 55.1818 21.96C54.8365 22.5107 54.3745 22.9213 53.7958 23.192C53.2171 23.4627 52.5778 23.598 51.8778 23.598C51.1778 23.598 50.5385 23.4627 49.9598 23.192C49.3905 22.9213 48.9378 22.5107 48.6018 21.96C48.2658 21.4093 48.0978 20.7373 48.0978 19.944V13.77H49.6938ZM62.5518 23.5L60.3118 19.608H59.0938V23.5H57.4978V13.77H60.8578C61.6045 13.77 62.2345 13.9007 62.7478 14.162C63.2705 14.4233 63.6578 14.7733 63.9098 15.212C64.1711 15.6507 64.3018 16.1407 64.3018 16.682C64.3018 17.3167 64.1151 17.8953 63.7418 18.418C63.3778 18.9313 62.8131 19.2813 62.0478 19.468L64.4558 23.5H62.5518ZM59.0938 18.334H60.8578C61.4551 18.334 61.9031 18.1847 62.2018 17.886C62.5098 17.5873 62.6638 17.186 62.6638 16.682C62.6638 16.178 62.5145 15.786 62.2158 15.506C61.9171 15.2167 61.4645 15.072 60.8578 15.072H59.0938V18.334Z" fill="#0C0903"/>
<defs>
<linearGradient id="paint0_linear_1302_24018" x1="18" y1="4.5" x2="18" y2="32.5" gradientUnits="userSpaceOnUse">
<stop stop-color="white" stop-opacity="0.7"/>
<stop offset="1" stop-opacity="0.3"/>
</linearGradient>
<linearGradient id="paint1_linear_1302_24018" x1="18" y1="4.5" x2="18" y2="32.5" gradientUnits="userSpaceOnUse">
<stop stop-color="white" stop-opacity="0.7"/>
<stop offset="1" stop-opacity="0.3"/>
</linearGradient>
<clipPath id="clip0_1302_24018">
<rect x="4" y="4.5" width="28" height="28" rx="14" fill="white"/>
</clipPath>
<clipPath id="clip1_1302_24018">
<rect x="4" y="4.5" width="28" height="28" rx="14" fill="white"/>
</clipPath>
</defs>
</svg>
