<svg width="72" height="37" viewBox="0 0 72 37" fill="none" xmlns="http://www.w3.org/2000/svg">
<path d="M0 8.5C0 4.08172 3.58172 0.5 8 0.5H64C68.4183 0.5 72 4.08172 72 8.5V28.5C72 32.9183 68.4183 36.5 64 36.5H8C3.58172 36.5 0 32.9183 0 28.5V8.5Z" fill="#EDEDED"/>
<g clip-path="url(#clip0_1302_15932)">
<mask id="mask0_1302_15932" style="mask-type:luminance" maskUnits="userSpaceOnUse" x="4" y="4" width="28" height="29">
<rect x="4" y="4.5" width="28" height="28" fill="white"/>
</mask>
<g mask="url(#mask0_1302_15932)">
<path fill-rule="evenodd" clip-rule="evenodd" d="M4 4.5V32.5H32V4.5H4Z" fill="#2E42A5"/>
<mask id="mask1_1302_15932" style="mask-type:luminance" maskUnits="userSpaceOnUse" x="4" y="4" width="28" height="29">
<path fill-rule="evenodd" clip-rule="evenodd" d="M4 4.5V32.5H32V4.5H4Z" fill="white"/>
</mask>
<g mask="url(#mask1_1302_15932)">
<mask id="mask2_1302_15932" style="mask-type:luminance" maskUnits="userSpaceOnUse" x="4" y="4" width="28" height="29">
<rect x="4" y="4.5" width="28" height="28" fill="white"/>
</mask>
<g mask="url(#mask2_1302_15932)">
<path d="M0.88208 30.4995L7.04356 33.9739L32.1396 8.27732L35.3897 3.11426L28.8009 1.95301L18.5648 13.0264L10.3258 20.4873L0.88208 30.4995Z" fill="white"/>
<path d="M1.72559 32.9339L4.86457 34.9502L34.2226 2.63477H29.8151L1.72559 32.9339Z" fill="#F50100"/>
<path d="M35.1177 30.4995L28.9562 33.9739L3.86012 8.27732L0.610077 3.11426L7.19889 1.95301L17.435 13.0264L25.674 20.4873L35.1177 30.4995Z" fill="white"/>
<path d="M34.9075 32.2467L31.7685 34.2629L19.2675 20.427L15.5613 18.8812L0.297382 3.13211H4.70489L19.9602 18.5074L24.0123 20.361L34.9075 32.2467Z" fill="#F50100"/>
<mask id="path-11-inside-1_1302_15932" fill="white">
<path fill-rule="evenodd" clip-rule="evenodd" d="M21.3054 2.16663H14.6943V13.8333H2.27393V23.1666H14.6943V34.8333H21.3054V23.1666H33.7739V13.8333H21.3054V2.16663Z"/>
</mask>
<path fill-rule="evenodd" clip-rule="evenodd" d="M21.3054 2.16663H14.6943V13.8333H2.27393V23.1666H14.6943V34.8333H21.3054V23.1666H33.7739V13.8333H21.3054V2.16663Z" fill="#F50100"/>
<path d="M14.6943 2.16663V1.16663H13.6943V2.16663H14.6943ZM21.3054 2.16663H22.3054V1.16663H21.3054V2.16663ZM14.6943 13.8333V14.8333H15.6943V13.8333H14.6943ZM2.27393 13.8333V12.8333H1.27393V13.8333H2.27393ZM2.27393 23.1666H1.27393V24.1666H2.27393V23.1666ZM14.6943 23.1666H15.6943V22.1666H14.6943V23.1666ZM14.6943 34.8333H13.6943V35.8333H14.6943V34.8333ZM21.3054 34.8333V35.8333H22.3054V34.8333H21.3054ZM21.3054 23.1666V22.1666H20.3054V23.1666H21.3054ZM33.7739 23.1666V24.1666H34.7739V23.1666H33.7739ZM33.7739 13.8333H34.7739V12.8333H33.7739V13.8333ZM21.3054 13.8333H20.3054V14.8333H21.3054V13.8333ZM14.6943 3.16663H21.3054V1.16663H14.6943V3.16663ZM15.6943 13.8333V2.16663H13.6943V13.8333H15.6943ZM2.27393 14.8333H14.6943V12.8333H2.27393V14.8333ZM3.27393 23.1666V13.8333H1.27393V23.1666H3.27393ZM14.6943 22.1666H2.27393V24.1666H14.6943V22.1666ZM15.6943 34.8333V23.1666H13.6943V34.8333H15.6943ZM21.3054 33.8333H14.6943V35.8333H21.3054V33.8333ZM20.3054 23.1666V34.8333H22.3054V23.1666H20.3054ZM33.7739 22.1666H21.3054V24.1666H33.7739V22.1666ZM32.7739 13.8333V23.1666H34.7739V13.8333H32.7739ZM21.3054 14.8333H33.7739V12.8333H21.3054V14.8333ZM20.3054 2.16663V13.8333H22.3054V2.16663H20.3054Z" fill="white" mask="url(#path-11-inside-1_1302_15932)"/>
</g>
</g>
</g>
</g>
<rect x="4" y="4.5" width="28" height="28" rx="14" fill="url(#paint0_linear_1302_15932)" style="mix-blend-mode:overlay"/>
<rect x="4.5" y="5" width="27" height="27" rx="13.5" stroke="black" stroke-opacity="0.1"/>
<path d="M48.092 16.57C47.84 16.0847 47.49 15.7207 47.042 15.478C46.594 15.226 46.076 15.1 45.488 15.1C44.844 15.1 44.27 15.2447 43.766 15.534C43.262 15.8233 42.8653 16.234 42.576 16.766C42.296 17.298 42.156 17.914 42.156 18.614C42.156 19.314 42.296 19.9347 42.576 20.476C42.8653 21.008 43.262 21.4187 43.766 21.708C44.27 21.9973 44.844 22.142 45.488 22.142C46.356 22.142 47.0607 21.8993 47.602 21.414C48.1433 20.9287 48.4747 20.2707 48.596 19.44H44.942V18.166H50.304V19.412C50.2013 20.168 49.9307 20.8633 49.492 21.498C49.0627 22.1327 48.498 22.6413 47.798 23.024C47.1073 23.3973 46.3373 23.584 45.488 23.584C44.5733 23.584 43.738 23.374 42.982 22.954C42.226 22.5247 41.624 21.932 41.176 21.176C40.7373 20.42 40.518 19.566 40.518 18.614C40.518 17.662 40.7373 16.808 41.176 16.052C41.624 15.296 42.226 14.708 42.982 14.288C43.7473 13.8587 44.5827 13.644 45.488 13.644C46.524 13.644 47.4433 13.9007 48.246 14.414C49.058 14.918 49.646 15.6367 50.01 16.57H48.092ZM56.8061 18.502C57.3288 18.5953 57.7721 18.8707 58.1361 19.328C58.5001 19.7853 58.6821 20.3033 58.6821 20.882C58.6821 21.3767 58.5515 21.8247 58.2901 22.226C58.0381 22.618 57.6695 22.9307 57.1841 23.164C56.6988 23.388 56.1341 23.5 55.4901 23.5H51.5981V13.77H55.3081C55.9708 13.77 56.5401 13.882 57.0161 14.106C57.4921 14.33 57.8515 14.6333 58.0941 15.016C58.3368 15.3893 58.4581 15.8093 58.4581 16.276C58.4581 16.836 58.3088 17.3027 58.0101 17.676C57.7115 18.0493 57.3101 18.3247 56.8061 18.502ZM53.1941 17.858H55.1681C55.6908 17.858 56.0968 17.7413 56.3861 17.508C56.6848 17.2653 56.8341 16.92 56.8341 16.472C56.8341 16.0333 56.6848 15.6927 56.3861 15.45C56.0968 15.198 55.6908 15.072 55.1681 15.072H53.1941V17.858ZM55.3501 22.198C55.8915 22.198 56.3161 22.0673 56.6241 21.806C56.9321 21.5447 57.0861 21.1807 57.0861 20.714C57.0861 20.238 56.9228 19.86 56.5961 19.58C56.2695 19.3 55.8355 19.16 55.2941 19.16H53.1941V22.198H55.3501ZM66.9405 16.668C66.9405 17.1627 66.8238 17.6293 66.5905 18.068C66.3572 18.5067 65.9838 18.866 65.4705 19.146C64.9572 19.4167 64.2992 19.552 63.4965 19.552H61.7325V23.5H60.1365V13.77H63.4965C64.2432 13.77 64.8732 13.9007 65.3865 14.162C65.9092 14.414 66.2965 14.7593 66.5485 15.198C66.8098 15.6367 66.9405 16.1267 66.9405 16.668ZM63.4965 18.25C64.1032 18.25 64.5558 18.1147 64.8545 17.844C65.1532 17.564 65.3025 17.172 65.3025 16.668C65.3025 15.604 64.7005 15.072 63.4965 15.072H61.7325V18.25H63.4965Z" fill="#0C0903"/>
<defs>
<linearGradient id="paint0_linear_1302_15932" x1="18" y1="4.5" x2="18" y2="32.5" gradientUnits="userSpaceOnUse">
<stop stop-color="white" stop-opacity="0.7"/>
<stop offset="1" stop-opacity="0.3"/>
</linearGradient>
<clipPath id="clip0_1302_15932">
<rect x="4" y="4.5" width="28" height="28" rx="14" fill="white"/>
</clipPath>
</defs>
</svg>
