<svg width="24" height="24" viewBox="0 0 24 24" fill="none" xmlns="http://www.w3.org/2000/svg">
<g id="image (3) 1">
<g id="Group">
<path id="Vector" d="M2.70938 5.01635C2.46563 5.09135 2.25 5.2601 2.11875 5.47573L1.99219 5.69604V7.99291V10.2898L2.10938 10.5007C2.175 10.6132 2.32031 10.7726 2.42813 10.8523L2.63438 10.9929L4.9125 11.007C7.47656 11.021 7.44844 11.0257 7.75313 10.6882C7.84219 10.5898 7.94063 10.4257 7.96875 10.3273C8.00625 10.2054 8.01563 9.45073 8.00625 7.88979L7.99219 5.6351L7.85156 5.42885C7.77188 5.32104 7.6125 5.17573 7.5 5.1101L7.28906 4.99291L5.0625 4.98354C3.83906 4.97885 2.77969 4.99291 2.70938 5.01635ZM6 8.01635V9.00073H5.01563H4.03125V8.01635V7.03198H5.01563H6V8.01635Z" fill="white"/>
<path id="Vector_2" d="M10.5704 7.07299C9.86723 7.39643 9.78286 8.40424 10.4157 8.84018L10.6079 8.97611L15.9469 8.99018C21.1875 8.99955 21.286 8.99955 21.4641 8.9058C22.1485 8.55893 22.2094 7.59799 21.5719 7.14799L21.3657 7.00736L16.0641 6.99799C10.9782 6.98393 10.7485 6.98861 10.5704 7.07299Z" fill="white"/>
<path id="Vector_3" d="M2.625 13.0359C2.41875 13.1203 2.20313 13.3125 2.09531 13.5141C1.99219 13.7109 1.99219 13.7203 1.99219 16.0078V18.3047L2.12344 18.525C2.20781 18.6703 2.32969 18.7922 2.475 18.8766L2.69531 19.0078H4.99219H7.28906L7.5 18.8906C7.6125 18.825 7.77188 18.6797 7.85156 18.5719L7.99219 18.3656L8.00625 16.1109C8.01563 14.5641 8.00625 13.7953 7.96875 13.6734C7.90313 13.4438 7.66406 13.1766 7.42969 13.0734C7.25625 12.9938 7.06875 12.9844 4.99219 12.9891C3.62813 12.9891 2.69531 13.0078 2.625 13.0359ZM6 15.9844V16.9688H5.01563H4.03125V15.9844V15H5.01563H6V15.9844Z" fill="white"/>
<path id="Vector_4" d="M10.5703 15.0658C10.0828 15.2814 9.84839 15.9329 10.0734 16.4298C10.1765 16.6642 10.4437 16.9033 10.6734 16.9689C10.8 17.0064 12.4078 17.0158 16.1109 17.0064L21.3656 16.9923L21.5718 16.8517C22.2046 16.4017 22.1484 15.4408 21.464 15.0939C21.2906 15.0001 21.1687 15.0001 15.9984 15.0001C11.7046 15.0048 10.6828 15.0142 10.5703 15.0658Z" fill="white"/>
</g>
</g>
</svg>
