<svg width="215" height="57" viewBox="0 0 215 57" fill="none" xmlns="http://www.w3.org/2000/svg">
<g clip-path="url(#clip0_65_4106)">
<path d="M38.2549 0C38.2549 0 63.8549 14.096 36.3669 19.452V17.324C36.3669 17.324 58.7309 11.76 38.2029 1.724L38.2549 0Z" fill="#224191"/>
<path d="M43.7709 8.24005C43.7709 8.24005 37.0509 -0.787949 19.8309 1.20405C2.61091 3.19605 0.302909 12.124 0.302909 12.124C0.302909 12.124 -5.47309 29.448 33.5829 32.076L33.6109 30.9881C33.6109 30.9881 14.8709 31.656 5.49891 21.0281C1.01091 15.2001 10.1469 8.98005 13.1389 7.95605C16.1309 6.93205 26.2909 2.48405 41.8829 8.75605L43.7709 8.24005Z" fill="#224191"/>
<path d="M6.05125 26.0641C6.05125 26.0641 22.5593 14.0641 39.7553 21.4161C52.3553 26.8121 41.7913 39.0161 35.9753 44.1841C33.953 45.9858 31.7064 47.5184 29.2913 48.7441C24.4913 51.1441 15.9913 54.4761 8.89125 51.9681L9.04726 50.3921C9.04726 50.3921 25.1113 52.0201 36.3713 36.3601C47.6313 20.7001 26.9233 20.7801 26.9233 20.7801C26.9233 20.7801 17.0793 20.5441 7.32325 26.8441L6.05125 26.0641Z" fill="#EC2326"/>
<path d="M16.7831 56.2761C16.7831 56.2761 -10.2369 57.5561 8.02708 39.2441C8.31443 38.9463 8.67192 38.7255 9.06677 38.6018C9.46163 38.4781 9.88122 38.4555 10.2871 38.5361C10.8671 38.6641 11.3231 39.0041 11.0271 39.8321C10.923 40.1064 10.7606 40.3548 10.5511 40.5601C8.55108 42.5961 -4.44092 56.5241 16.7831 55.0641V56.2761Z" fill="#EC2326"/>
<path d="M53.4558 56.2159C52.5194 56.2319 51.5872 56.0871 50.6998 55.7879C49.8424 55.4668 49.0724 54.9489 48.4518 54.2759C47.7135 53.4511 47.2813 52.3975 47.2278 51.2919C47.1254 49.672 47.2289 48.0457 47.5358 46.4519L49.1358 38.9359C49.1809 38.788 49.1913 38.6317 49.1664 38.4791C49.1414 38.3265 49.0817 38.1817 48.9918 38.0559C48.8903 37.9354 48.7614 37.841 48.616 37.7805C48.4706 37.7199 48.3128 37.695 48.1558 37.7079H47.3558L47.8478 35.3799H51.6478C54.4264 35.3799 55.5571 36.5799 55.0398 38.9799L53.2838 47.3159C52.9024 49.1132 52.9438 50.4465 53.4078 51.3159C53.6042 51.7177 53.9135 52.0536 54.2978 52.2824C54.6822 52.5111 55.1249 52.6229 55.5718 52.6039C56.6064 52.6039 57.6211 52.1412 58.6158 51.2159C59.6104 50.2905 60.3251 48.8332 60.7598 46.8439L62.4758 38.8759C62.7424 37.6225 63.2264 36.7306 63.9278 36.1999C64.6291 35.6692 65.6958 35.4026 67.1278 35.3999H69.1278L66.5958 47.3319C66.2144 49.1292 66.2624 50.4625 66.7398 51.3319C66.936 51.7296 67.2424 52.0625 67.6226 52.2908C68.0027 52.5192 68.4405 52.6334 68.8838 52.6199C69.9184 52.6199 70.9531 52.0745 71.9878 50.9839C73.0224 49.8932 73.7571 48.3412 74.1918 46.3279L75.7438 38.8919C76.0104 37.6652 76.5011 36.7799 77.2158 36.2359C77.9304 35.6919 79.0064 35.4252 80.4438 35.4359H82.3838L80.1358 45.7719C79.4825 48.6634 77.88 51.2531 75.5838 53.1279C73.1838 55.1839 70.2078 56.2119 66.6558 56.2119C64.0691 56.2119 62.3531 55.1225 61.5078 52.9439C59.1078 55.1252 56.4238 56.2159 53.4558 56.2159Z" fill="#224191"/>
<path d="M88.2629 55.8042C86.8176 55.8042 85.7416 55.4975 85.0349 54.8842C84.3283 54.2709 84.1109 53.3669 84.3829 52.1722L87.1829 38.9362C87.3456 38.1202 87.0189 37.7122 86.2029 37.7122H85.4029L85.8949 35.3842H89.1829C90.6256 35.3842 91.7016 35.6909 92.4109 36.3042C93.1203 36.9175 93.3376 37.8095 93.0629 38.9802L90.2629 52.2562C90.1269 53.0722 90.4536 53.4802 91.2429 53.4802H92.0429L91.5829 55.8042H88.2629ZM90.9589 32.8842C90.5349 32.9056 90.1119 32.8261 89.7246 32.6523C89.3373 32.4784 88.9967 32.2152 88.7309 31.8842C88.4657 31.5447 88.2818 31.1491 88.193 30.7275C88.1043 30.306 88.1131 29.8698 88.2189 29.4522C88.4191 28.4826 88.9544 27.6144 89.7309 27.0002C90.4646 26.3516 91.4077 25.9894 92.3869 25.9802C92.8128 25.9595 93.2375 26.0413 93.6252 26.2188C94.0129 26.3963 94.3523 26.6643 94.6149 27.0002C94.8794 27.344 95.0628 27.743 95.1515 28.1676C95.2401 28.5922 95.2317 29.0313 95.1269 29.4522C94.903 30.4165 94.3552 31.2749 93.5749 31.8842C92.849 32.5169 91.9219 32.8713 90.9589 32.8842Z" fill="#224191"/>
<path d="M102.723 56.2159C100.379 56.2159 98.8054 55.3372 98.0028 53.5799C97.2001 51.8226 97.1521 49.2692 97.8588 45.9199L99.3308 38.8919H96.6348L97.3708 35.3799H100.067L101.087 30.7639C101.223 29.9479 100.896 29.5399 100.107 29.5399H99.2508L99.7828 27.2119H103.091C104.533 27.2119 105.609 27.5186 106.319 28.1319C107.028 28.7452 107.245 29.6372 106.971 30.8079L105.983 35.3719H110.383L109.607 38.8839H105.259L103.627 46.6879C103.192 48.4586 103.043 49.8412 103.179 50.8359C103.315 51.8306 103.805 52.3279 104.651 52.3279C105.685 52.3279 106.544 51.7292 107.227 50.5319L108.699 51.3879C109.733 52.0146 109.665 52.8732 108.495 53.9639C107.729 54.7013 106.824 55.2799 105.834 55.6664C104.843 56.0529 103.786 56.2396 102.723 56.2159Z" fill="#224191"/>
<path d="M121.479 56.2961C118.349 56.2961 115.983 55.3215 114.383 53.3721C112.783 51.4228 112.327 48.8495 113.015 45.6521C113.609 42.6104 115.258 39.8761 117.671 37.9321C120.015 35.9914 122.969 34.9428 126.011 34.9721C127.408 34.9409 128.795 35.2139 130.075 35.7721C131.131 36.2088 132.034 36.9477 132.671 37.8961C133.351 38.9628 133.038 39.8068 131.731 40.4281L129.983 41.3001C129.45 39.5561 128.197 38.6841 126.223 38.6841C124.545 38.6971 122.941 39.3763 121.763 40.5721C120.376 41.9367 119.447 43.6997 119.107 45.6161C118.67 47.6855 118.847 49.3535 119.639 50.6201C120.431 51.8868 121.643 52.5201 123.275 52.5201C125.238 52.5201 126.859 51.6481 128.139 49.9041L129.527 50.7641C130.509 51.4175 130.467 52.2761 129.403 53.3401C128.382 54.2697 127.189 54.9911 125.891 55.4641C124.485 56.0121 122.989 56.2942 121.479 56.2961Z" fill="#224191"/>
<path d="M133.775 55.8041L139.535 28.7161C139.698 27.9001 139.371 27.4921 138.555 27.4921H137.755L138.247 25.1641H141.555C143.027 25.1641 144.11 25.4707 144.803 26.0841C145.497 26.6974 145.722 27.5894 145.479 28.7601L143.583 37.4201C145.45 35.7854 147.493 34.9681 149.711 34.9681C152.082 34.9681 153.893 35.7374 155.143 37.2761C156.394 38.8147 156.661 41.3001 155.943 44.7321L154.343 52.2481C154.297 52.3991 154.285 52.5588 154.31 52.7149C154.335 52.871 154.396 53.0192 154.487 53.1481C154.586 53.2612 154.71 53.3498 154.849 53.4068C154.987 53.4637 155.138 53.4875 155.287 53.4761H156.143L155.651 55.8041H151.811C149.059 55.8041 147.929 54.5921 148.419 52.1681L150.175 43.9961C150.583 42.1721 150.515 40.8107 149.971 39.9121C149.739 39.4912 149.395 39.1427 148.977 38.9048C148.559 38.667 148.084 38.5491 147.603 38.5641C146.412 38.6027 145.273 39.0586 144.383 39.8521C143.3 40.7675 142.57 42.0321 142.319 43.4281L140.439 52.3361C140.173 53.5601 139.682 54.4454 138.967 54.9921C138.253 55.5387 137.186 55.8054 135.767 55.7921L133.775 55.8041Z" fill="#224191"/>
<path d="M163.843 55.8042C162.398 55.8042 161.322 55.4975 160.615 54.8842C159.908 54.2709 159.691 53.3669 159.963 52.1722L162.763 38.9362C162.926 38.1202 162.599 37.7122 161.783 37.7122H160.983L161.475 35.3842H164.783C166.226 35.3842 167.302 35.6909 168.011 36.3042C168.72 36.9175 168.938 37.8069 168.663 38.9722L165.863 52.2482C165.727 53.0642 166.054 53.4722 166.843 53.4722H167.643L167.151 55.8002L163.843 55.8042ZM166.539 32.8842C166.115 32.9056 165.692 32.8261 165.305 32.6523C164.917 32.4784 164.577 32.2152 164.311 31.8842C164.046 31.5447 163.862 31.1491 163.773 30.7275C163.684 30.306 163.693 29.8698 163.799 29.4522C163.999 28.4826 164.534 27.6144 165.311 27.0002C166.045 26.3516 166.988 25.9894 167.967 25.9802C168.393 25.9595 168.818 26.0413 169.205 26.2188C169.593 26.3963 169.932 26.6643 170.195 27.0002C170.459 27.344 170.643 27.743 170.732 28.1676C170.82 28.5922 170.812 29.0313 170.707 29.4522C170.483 30.4165 169.935 31.2749 169.155 31.8842C168.429 32.5169 167.502 32.8713 166.539 32.8842Z" fill="#224191"/>
<path d="M177.532 56.2161C172.548 56.2161 170.736 53.0294 172.096 46.6561L173.732 38.9361C173.777 38.7882 173.787 38.6319 173.762 38.4793C173.737 38.3267 173.678 38.1819 173.588 38.0561C173.486 37.9356 173.357 37.8412 173.212 37.7807C173.067 37.7201 172.909 37.6952 172.752 37.7081H171.952L172.424 35.3721H176.224C179.002 35.3721 180.133 36.5721 179.616 38.9721L177.82 47.4281C177.11 50.7774 177.546 52.4521 179.128 52.4521C180.762 52.4521 182.496 51.5801 184.328 49.8361C186.044 48.2617 187.337 46.281 188.088 44.0761C188.421 43.0191 188.587 41.9164 188.58 40.8081C188.562 39.8312 188.673 38.8563 188.908 37.9081C189.358 36.2174 190.537 35.3721 192.444 35.3721H194.528L193.792 38.5201C193.318 40.7037 192.585 42.8227 191.608 44.8321C190.639 46.8467 189.447 48.7454 188.052 50.4921C186.724 52.169 185.088 53.5769 183.232 54.6401C181.504 55.6596 179.538 56.2034 177.532 56.2161Z" fill="#224191"/>
<path d="M202.332 56.2961C199.198 56.2961 196.836 55.3094 195.244 53.3361C193.652 51.3628 193.196 48.7827 193.876 45.5961C194.509 42.6002 196.145 39.9102 198.515 37.971C200.885 36.0319 203.846 34.9598 206.908 34.9321C208.561 34.9092 210.193 35.3099 211.648 36.0961C212.911 36.8071 213.897 37.9232 214.448 39.2641C215.018 40.5974 214.821 41.9307 213.856 43.2641C212.89 44.5974 211.118 45.5667 208.54 46.1721L199.676 48.3761C199.708 49.54 200.191 50.6459 201.024 51.4601C201.88 52.2071 202.992 52.5953 204.128 52.5441C205.624 52.5679 207.097 52.176 208.384 51.4121C209.522 50.7523 210.515 49.8693 211.304 48.8161L212.652 49.6721C213.66 50.2987 213.618 51.1574 212.528 52.2481C211.269 53.4323 209.818 54.3927 208.236 55.0881C206.379 55.9146 204.364 56.3268 202.332 56.2961ZM200.084 45.0201L205.764 43.5881C206.815 43.3641 207.809 42.9257 208.684 42.3001C208.987 42.0975 209.223 41.8072 209.358 41.4679C209.493 41.1285 209.521 40.7561 209.44 40.4001C209.384 40.1281 209.269 39.8717 209.103 39.6491C208.937 39.4265 208.724 39.2432 208.48 39.1121C207.928 38.7947 207.3 38.633 206.664 38.6441C205.384 38.6441 204.097 39.2294 202.804 40.4001C201.466 41.6419 200.52 43.2478 200.084 45.0201Z" fill="#224191"/>
</g>
<defs>
<clipPath id="clip0_65_4106">
<rect width="214.784" height="56.296" fill="white"/>
</clipPath>
</defs>
</svg>
