<svg width="70" height="37" viewBox="0 0 70 37" fill="none" xmlns="http://www.w3.org/2000/svg">
<path d="M0 8.5C0 4.08172 3.58172 0.5 8 0.5H62C66.4183 0.5 70 4.08172 70 8.5V28.5C70 32.9183 66.4183 36.5 62 36.5H8C3.58172 36.5 0 32.9183 0 28.5V8.5Z" fill="#EDEDED"/>
<g clip-path="url(#clip0_1302_23708)">
<mask id="mask0_1302_23708" style="mask-type:luminance" maskUnits="userSpaceOnUse" x="4" y="4" width="28" height="29">
<rect x="4" y="4.5" width="28" height="28" fill="white"/>
</mask>
<g mask="url(#mask0_1302_23708)">
<path fill-rule="evenodd" clip-rule="evenodd" d="M4 4.5H32V32.5H4V4.5Z" fill="#FAFDFF"/>
<path fill-rule="evenodd" clip-rule="evenodd" d="M22.375 4.5H32V32.5H22.375V4.5Z" fill="#009933"/>
<path fill-rule="evenodd" clip-rule="evenodd" d="M4 4.5H13.625V32.5H4V4.5Z" fill="#009933"/>
</g>
</g>
<rect x="4" y="4.5" width="28" height="28" rx="14" fill="url(#paint0_linear_1302_23708)" style="mix-blend-mode:overlay"/>
<rect x="4.5" y="5" width="27" height="27" rx="13.5" stroke="black" stroke-opacity="0.1"/>
<path d="M45.044 23.5H43.448L38.646 16.234V23.5H37.05V13.756H38.646L43.448 21.008V13.756H45.044V23.5ZM53.9018 16.57C53.6498 16.0847 53.2998 15.7207 52.8518 15.478C52.4038 15.226 51.8858 15.1 51.2978 15.1C50.6538 15.1 50.0798 15.2447 49.5758 15.534C49.0718 15.8233 48.6752 16.234 48.3858 16.766C48.1058 17.298 47.9658 17.914 47.9658 18.614C47.9658 19.314 48.1058 19.9347 48.3858 20.476C48.6752 21.008 49.0718 21.4187 49.5758 21.708C50.0798 21.9973 50.6538 22.142 51.2978 22.142C52.1658 22.142 52.8705 21.8993 53.4118 21.414C53.9532 20.9287 54.2845 20.2707 54.4058 19.44H50.7518V18.166H56.1138V19.412C56.0112 20.168 55.7405 20.8633 55.3018 21.498C54.8725 22.1327 54.3078 22.6413 53.6078 23.024C52.9172 23.3973 52.1472 23.584 51.2978 23.584C50.3832 23.584 49.5478 23.374 48.7918 22.954C48.0358 22.5247 47.4338 21.932 46.9858 21.176C46.5472 20.42 46.3278 19.566 46.3278 18.614C46.3278 17.662 46.5472 16.808 46.9858 16.052C47.4338 15.296 48.0358 14.708 48.7918 14.288C49.5572 13.8587 50.3925 13.644 51.2978 13.644C52.3338 13.644 53.2532 13.9007 54.0558 14.414C54.8678 14.918 55.4558 15.6367 55.8198 16.57H53.9018ZM62.462 23.5L60.222 19.608H59.004V23.5H57.408V13.77H60.768C61.5146 13.77 62.1446 13.9007 62.658 14.162C63.1806 14.4233 63.568 14.7733 63.82 15.212C64.0813 15.6507 64.212 16.1407 64.212 16.682C64.212 17.3167 64.0253 17.8953 63.652 18.418C63.288 18.9313 62.7233 19.2813 61.958 19.468L64.366 23.5H62.462ZM59.004 18.334H60.768C61.3653 18.334 61.8133 18.1847 62.112 17.886C62.42 17.5873 62.574 17.186 62.574 16.682C62.574 16.178 62.4246 15.786 62.126 15.506C61.8273 15.2167 61.3746 15.072 60.768 15.072H59.004V18.334Z" fill="#0C0903"/>
<defs>
<linearGradient id="paint0_linear_1302_23708" x1="18" y1="4.5" x2="18" y2="32.5" gradientUnits="userSpaceOnUse">
<stop stop-color="white" stop-opacity="0.7"/>
<stop offset="1" stop-opacity="0.3"/>
</linearGradient>
<clipPath id="clip0_1302_23708">
<rect x="4" y="4.5" width="28" height="28" rx="14" fill="white"/>
</clipPath>
</defs>
</svg>
