<svg width="24" height="25" viewBox="0 0 24 25" fill="none" xmlns="http://www.w3.org/2000/svg">
<path d="M16 23.046H8C4.98 23.046 3.25 21.316 3.25 18.296V8.54602C3.25 5.39602 4.85 3.79602 8 3.79602C8.41 3.79602 8.75 4.13602 8.75 4.54602C8.75 4.94602 8.91 5.32602 9.19 5.60602C9.47 5.88602 9.85 6.04602 10.25 6.04602H13.75C14.58 6.04602 15.25 5.37602 15.25 4.54602C15.25 4.13602 15.59 3.79602 16 3.79602C19.15 3.79602 20.75 5.39602 20.75 8.54602V18.296C20.75 21.316 19.02 23.046 16 23.046ZM7.34998 5.31602C5.76998 5.44602 4.75 6.15602 4.75 8.54602V18.296C4.75 20.516 5.78 21.546 8 21.546H16C18.22 21.546 19.25 20.516 19.25 18.296V8.54602C19.25 6.15602 18.23 5.45602 16.65 5.31602C16.31 6.59602 15.14 7.54602 13.75 7.54602H10.25C9.45 7.54602 8.70001 7.23602 8.13 6.66602C7.75 6.28602 7.48998 5.82602 7.34998 5.31602Z" fill="#0C0903"/>
<path d="M13.75 7.54602H10.25C9.45 7.54602 8.7 7.23602 8.13 6.66602C7.56 6.09602 7.25 5.34602 7.25 4.54602C7.25 2.89602 8.6 1.54602 10.25 1.54602H13.75C14.55 1.54602 15.3 1.85603 15.87 2.42603C16.44 2.99603 16.75 3.74602 16.75 4.54602C16.75 6.19602 15.4 7.54602 13.75 7.54602ZM10.25 3.04602C9.42 3.04602 8.75 3.71602 8.75 4.54602C8.75 4.94602 8.91 5.32602 9.19 5.60602C9.47 5.88602 9.85 6.04602 10.25 6.04602H13.75C14.58 6.04602 15.25 5.37602 15.25 4.54602C15.25 4.14602 15.09 3.76602 14.81 3.48602C14.53 3.20602 14.15 3.04602 13.75 3.04602H10.25Z" fill="#0C0903"/>
<path d="M12 14.046H8C7.59 14.046 7.25 13.706 7.25 13.296C7.25 12.886 7.59 12.546 8 12.546H12C12.41 12.546 12.75 12.886 12.75 13.296C12.75 13.706 12.41 14.046 12 14.046Z" fill="#0C0903"/>
<path d="M16 18.046H8C7.59 18.046 7.25 17.706 7.25 17.296C7.25 16.886 7.59 16.546 8 16.546H16C16.41 16.546 16.75 16.886 16.75 17.296C16.75 17.706 16.41 18.046 16 18.046Z" fill="#0C0903"/>
</svg>
