<svg width="24" height="25" viewBox="0 0 24 25" fill="none" xmlns="http://www.w3.org/2000/svg">
<path d="M10.5098 0.862488L10.5095 0.862528C6.58883 1.40001 3.27369 3.81149 1.59171 7.34797L1.59148 7.34845C0.849964 8.90324 0.5 10.4895 0.5 12.294C0.5 13.6974 0.651976 14.655 1.07515 15.9487C2.44956 20.1241 6.11384 23.1446 10.5364 23.7251C11.2638 23.8195 12.7448 23.8195 13.4723 23.7251C17.4767 23.1974 20.8832 20.6665 22.522 17.0059C23.2022 15.4827 23.5037 14.0323 23.5037 12.294C23.5037 10.8859 23.3519 9.93327 22.9234 8.62392C22.3832 6.9795 21.4301 5.43149 20.174 4.17058C18.3519 2.34383 16.0433 1.20359 13.4719 0.862885C13.1426 0.819765 12.5678 0.795898 11.9762 0.795898C11.3834 0.795898 10.8193 0.819881 10.5098 0.862488ZM12.6853 5.56955L12.6922 5.57445L12.699 5.57958C12.9175 5.74524 13.0864 5.94573 13.1864 6.23455C13.2765 6.49486 13.2994 6.79778 13.302 7.14452V7.14822V7.26603L13.4515 7.33904L13.4515 7.33901L13.4557 7.3411C14.0741 7.65032 14.5484 8.10299 14.8647 8.71056C14.9443 8.8599 15.0132 8.99904 15.0528 9.13648C15.0997 9.29958 15.0993 9.43582 15.0839 9.56701L15.084 9.56702L15.0825 9.57754C14.993 10.2206 14.4758 10.6687 13.8272 10.6687C13.6127 10.6687 13.3885 10.6347 13.1724 10.4986C12.9725 10.3726 12.8289 10.189 12.7052 9.9997C12.5934 9.83347 12.525 9.74866 12.4701 9.69552C12.4245 9.65145 12.3801 9.62116 12.3006 9.58619L12.2985 9.58528C11.9608 9.43485 11.5356 9.60434 11.3932 9.94594L11.3924 9.9479C11.3551 10.0364 11.3376 10.1996 11.3757 10.3898C11.4143 10.5825 11.4914 10.7113 11.5454 10.761L11.5455 10.7611C11.625 10.8343 11.8532 10.9416 12.1728 10.971L12.1728 10.971L12.1781 10.9715C13.5828 11.116 14.7367 12.0252 15.1543 13.3544L15.1544 13.3548C15.4982 14.4524 15.1844 15.6403 14.3567 16.4922C14.1985 16.6565 13.9791 16.8245 13.774 16.9587C13.6271 17.0548 13.4595 17.1521 13.302 17.2211V17.2898H13.302L13.302 17.2942C13.2969 17.8753 13.2394 18.3302 12.8957 18.6832C12.1736 19.4295 10.9925 19.028 10.7698 18.0585C10.7269 17.877 10.7017 17.5492 10.7017 17.3098V17.2162L10.6096 17.1725C10.1582 16.9632 9.73456 16.597 9.43097 16.2188C9.2771 16.0271 9.14292 15.8186 9.04996 15.6081C8.96057 15.4056 8.89045 15.1589 8.91976 14.9072C8.99327 14.2649 9.52246 13.7793 10.1766 13.7793C10.6576 13.7793 11.0345 14.0246 11.2783 14.4237L11.2798 14.4261C11.4403 14.6921 11.5544 14.8111 11.6441 14.871C11.7194 14.9211 11.8143 14.9545 12.0019 14.9545C12.2273 14.9545 12.3969 14.878 12.5407 14.7196C12.7625 14.4722 12.7715 14.0401 12.519 13.7571L12.5189 13.7572L12.5149 13.7525C12.4385 13.6648 12.3807 13.624 12.3059 13.5931C12.2155 13.5557 12.0748 13.5227 11.8125 13.4967L11.8112 13.4966C11.3783 13.4524 10.9985 13.3615 10.6448 13.1942C10.2904 13.0266 9.98652 12.7938 9.69136 12.4959L9.68973 12.4942C9.0702 11.863 8.75144 11.1031 8.75144 10.2187C8.75144 8.90719 9.51882 7.69618 10.7017 7.22469L10.7017 7.14322L10.7018 7.13982C10.7044 6.75586 10.7391 6.41018 10.8617 6.12221C10.9976 5.80306 11.2238 5.59324 11.5166 5.45934C11.7177 5.36523 11.9396 5.35093 12.1201 5.36935C12.3028 5.38799 12.5118 5.44707 12.6853 5.56955Z" stroke="black"/>
</svg>
