<svg width="24" height="25" viewBox="0 0 24 25" fill="none" xmlns="http://www.w3.org/2000/svg">
<g id="vuesax/outline/profile-2user">
<g id="profile-2user">
<path id="Vector" d="M9.15962 11.916C9.12962 11.916 9.10962 11.916 9.07962 11.916C9.02962 11.906 8.95962 11.906 8.89962 11.916C5.99962 11.826 3.80962 9.54602 3.80962 6.73602C3.80962 3.87602 6.13962 1.54602 8.99962 1.54602C11.8596 1.54602 14.1896 3.87602 14.1896 6.73602C14.1796 9.54602 11.9796 11.826 9.18962 11.916C9.17962 11.916 9.16962 11.916 9.15962 11.916ZM8.99962 3.04602C6.96962 3.04602 5.30962 4.70602 5.30962 6.73602C5.30962 8.73602 6.86962 10.346 8.85962 10.416C8.91962 10.406 9.04962 10.406 9.17962 10.416C11.1396 10.326 12.6796 8.71602 12.6896 6.73602C12.6896 4.70602 11.0296 3.04602 8.99962 3.04602Z" fill="#0C0903"/>
<path id="Vector_2" d="M16.5396 12.046C16.5096 12.046 16.4796 12.046 16.4496 12.036C16.0396 12.076 15.6196 11.786 15.5796 11.376C15.5396 10.966 15.7896 10.596 16.1996 10.546C16.3196 10.536 16.4496 10.536 16.5596 10.536C18.0196 10.456 19.1596 9.25602 19.1596 7.78602C19.1596 6.26602 17.9296 5.03602 16.4096 5.03602C15.9996 5.04602 15.6596 4.70602 15.6596 4.29602C15.6596 3.88602 15.9996 3.54602 16.4096 3.54602C18.7496 3.54602 20.6596 5.45602 20.6596 7.79602C20.6596 10.096 18.8596 11.956 16.5696 12.046C16.5596 12.046 16.5496 12.046 16.5396 12.046Z" fill="#0C0903"/>
<path id="Vector_3" d="M9.16961 22.846C7.20961 22.846 5.23961 22.346 3.74961 21.346C2.35961 20.426 1.59961 19.166 1.59961 17.796C1.59961 16.426 2.35961 15.156 3.74961 14.226C6.74961 12.236 11.6096 12.236 14.5896 14.226C15.9696 15.146 16.7396 16.406 16.7396 17.776C16.7396 19.146 15.9796 20.416 14.5896 21.346C13.0896 22.346 11.1296 22.846 9.16961 22.846ZM4.57961 15.486C3.61961 16.126 3.09961 16.946 3.09961 17.806C3.09961 18.656 3.62961 19.476 4.57961 20.106C7.06961 21.776 11.2696 21.776 13.7596 20.106C14.7196 19.466 15.2396 18.646 15.2396 17.786C15.2396 16.936 14.7096 16.116 13.7596 15.486C11.2696 13.826 7.06961 13.826 4.57961 15.486Z" fill="#0C0903"/>
<path id="Vector_4" d="M18.3396 21.046C17.9896 21.046 17.6796 20.806 17.6096 20.446C17.5296 20.036 17.7896 19.646 18.1896 19.556C18.8196 19.426 19.3996 19.176 19.8496 18.826C20.4196 18.396 20.7296 17.856 20.7296 17.286C20.7296 16.716 20.4196 16.176 19.8596 15.756C19.4196 15.416 18.8696 15.176 18.2196 15.026C17.8196 14.936 17.5596 14.536 17.6496 14.126C17.7396 13.726 18.1396 13.466 18.5496 13.556C19.4096 13.746 20.1596 14.086 20.7696 14.556C21.6996 15.256 22.2296 16.246 22.2296 17.286C22.2296 18.326 21.6896 19.316 20.7596 20.026C20.1396 20.506 19.3596 20.856 18.4996 21.026C18.4396 21.046 18.3896 21.046 18.3396 21.046Z" fill="#292D32"/>
</g>
</g>
</svg>
