<svg width="18" height="18" viewBox="0 0 18 18" fill="none" xmlns="http://www.w3.org/2000/svg">
<g id="vuesax/linear/convertshape-2">
<g id="convertshape-2">
<path id="Vector" d="M8.25 12.1125V14.1375C8.25 15.825 7.575 16.5 5.8875 16.5H3.8625C2.175 16.5 1.5 15.825 1.5 14.1375V12.1125C1.5 10.425 2.175 9.75 3.8625 9.75H5.8875C7.575 9.75 8.25 10.425 8.25 12.1125Z" stroke="#224191" stroke-width="1.5" stroke-linecap="round" stroke-linejoin="round"/>
<path id="Vector_2" d="M16.5 11.25C16.5 14.1525 14.1525 16.5 11.25 16.5L12.0375 15.1875" stroke="#224191" stroke-width="1.5" stroke-linecap="round" stroke-linejoin="round"/>
<path id="Vector_3" d="M1.5 6.75C1.5 3.8475 3.8475 1.5 6.75 1.5L5.9625 2.8125" stroke="#224191" stroke-width="1.5" stroke-linecap="round" stroke-linejoin="round"/>
<path id="Vector_4" d="M13.125 8.25C14.989 8.25 16.5 6.73896 16.5 4.875C16.5 3.01104 14.989 1.5 13.125 1.5C11.261 1.5 9.75 3.01104 9.75 4.875C9.75 6.73896 11.261 8.25 13.125 8.25Z" stroke="#224191" stroke-width="1.5" stroke-linecap="round" stroke-linejoin="round"/>
</g>
</g>
</svg>
