<svg width="24" height="25" viewBox="0 0 24 25" fill="none" xmlns="http://www.w3.org/2000/svg">
<path d="M22 11.0469C22.41 11.0469 22.75 10.7069 22.75 10.2969V9.29688C22.75 4.88688 21.41 3.54688 17 3.54688H10.75V5.79688C10.75 6.20688 10.41 6.54688 10 6.54688C9.59 6.54688 9.25 6.20688 9.25 5.79688V3.54688H7C2.59 3.54688 1.25 4.88688 1.25 9.29688V9.79688C1.25 10.2069 1.59 10.5469 2 10.5469C2.96 10.5469 3.75 11.3369 3.75 12.2969C3.75 13.2569 2.96 14.0469 2 14.0469C1.59 14.0469 1.25 14.3869 1.25 14.7969V15.2969C1.25 19.7069 2.59 21.0469 7 21.0469H9.25V18.7969C9.25 18.3869 9.59 18.0469 10 18.0469C10.41 18.0469 10.75 18.3869 10.75 18.7969V21.0469H17C21.41 21.0469 22.75 19.7069 22.75 15.2969C22.75 14.8869 22.41 14.5469 22 14.5469C21.04 14.5469 20.25 13.7569 20.25 12.7969C20.25 11.8369 21.04 11.0469 22 11.0469ZM10.75 14.4669C10.75 14.8769 10.41 15.2169 10 15.2169C9.59 15.2169 9.25 14.8769 9.25 14.4669V10.1269C9.25 9.71688 9.59 9.37687 10 9.37687C10.41 9.37687 10.75 9.71688 10.75 10.1269V14.4669Z" fill="white"/>
</svg>
