<svg width="72" height="37" viewBox="0 0 72 37" fill="none" xmlns="http://www.w3.org/2000/svg">
<path d="M0 8.5C0 4.08172 3.58172 0.5 8 0.5H64C68.4183 0.5 72 4.08172 72 8.5V28.5C72 32.9183 68.4183 36.5 64 36.5H8C3.58172 36.5 0 32.9183 0 28.5V8.5Z" fill="#EDEDED"/>
<g clip-path="url(#clip0_1302_36540)">
<mask id="mask0_1302_36540" style="mask-type:luminance" maskUnits="userSpaceOnUse" x="4" y="4" width="28" height="29">
<rect x="4" y="4.5" width="28" height="28" fill="white"/>
</mask>
<g mask="url(#mask0_1302_36540)">
<path fill-rule="evenodd" clip-rule="evenodd" d="M4 4.5H32V32.5H4V4.5Z" fill="#E31D1C"/>
<path fill-rule="evenodd" clip-rule="evenodd" d="M4 6.83337V9.16671H32V6.83337H4ZM4 11.5V13.8334H32V11.5H4ZM4 18.5V16.1667H32V18.5H4ZM4 20.8334V23.1667H32V20.8334H4ZM4 27.8334V25.5H32V27.8334H4ZM4 32.5V30.1667H32V32.5H4Z" fill="#F7FCFF"/>
<rect x="4" y="4.5" width="15.75" height="16.3333" fill="#2E42A5"/>
<path fill-rule="evenodd" clip-rule="evenodd" d="M5.81991 9.57216L6.74727 8.71085L7.46662 9.40136H7.05933L7.883 10.3727L7.6048 11.7347H7.16907L6.74597 10.4838L6.38515 11.7347H5.30933L6.133 12.7061L5.81991 14.2388L6.74727 13.3775L7.46662 14.068H7.05933L7.883 15.0394L7.6048 16.4014H7.16907L6.74597 15.1505L6.38515 16.4014H5.30933L6.133 17.3727L5.81991 18.9055L6.74727 18.0442L7.64455 18.9055L7.36558 17.3727L8.08618 16.4014H7.7538L8.49727 15.7109L9.21662 16.4014H8.80933L9.633 17.3727L9.31991 18.9055L10.2473 18.0442L11.1446 18.9055L10.8656 17.3727L11.5862 16.4014H11.2538L11.9973 15.7109L12.7166 16.4014H12.3093L13.133 17.3727L12.8199 18.9055L13.7473 18.0442L14.6446 18.9055L14.3656 17.3727L15.0862 16.4014H14.7538L15.4973 15.7109L16.2166 16.4014H15.8093L16.633 17.3727L16.3199 18.9055L17.2473 18.0442L18.1446 18.9055L17.8656 17.3727L18.5862 16.4014H17.6691L17.246 15.1505L16.8852 16.4014H16.3635L16.1156 15.0394L16.8362 14.068H16.5038L17.2473 13.3775L18.1446 14.2388L17.8656 12.7061L18.5862 11.7347H17.6691L17.246 10.4838L16.8852 11.7347H16.3635L16.1156 10.3727L16.8362 9.40136H16.5038L17.2473 8.71085L18.1446 9.57216L17.8656 8.03939L18.5862 7.06803H17.6691L17.246 5.81714L16.8852 7.06803H15.8093L16.633 8.03939L16.3548 9.40136H15.9191L15.496 8.15047L15.1352 9.40136H14.6135L14.3656 8.03939L15.0862 7.06803H14.1691L13.746 5.81714L13.3852 7.06803H12.3093L13.133 8.03939L12.8548 9.40136H12.4191L11.996 8.15047L11.6352 9.40136H11.1135L10.8656 8.03939L11.5862 7.06803H10.6691L10.246 5.81714L9.88515 7.06803H8.80933L9.633 8.03939L9.3548 9.40136H8.91907L8.49597 8.15047L8.13515 9.40136H7.61347L7.36558 8.03939L8.08618 7.06803H7.16907L6.74597 5.81714L6.38515 7.06803H5.30933L6.133 8.03939L5.81991 9.57216ZM16.3548 14.068L16.633 12.7061L15.8093 11.7347H16.2166L15.4973 11.0442L14.7538 11.7347H15.0862L14.3656 12.7061L14.6135 14.068H15.1352L15.496 12.8171L15.9191 14.068H16.3548ZM14.4666 14.068L13.7473 13.3775L13.0038 14.068H13.3362L12.6156 15.0394L12.8635 16.4014H13.3852L13.746 15.1505L14.1691 16.4014H14.6048L14.883 15.0394L14.0593 14.068H14.4666ZM11.383 15.0394L11.1048 16.4014H10.6691L10.246 15.1505L9.88515 16.4014H9.36347L9.11558 15.0394L9.83618 14.068H9.5038L10.2473 13.3775L10.9666 14.068H10.5593L11.383 15.0394ZM11.6352 14.068H11.1135L10.8656 12.7061L11.5862 11.7347H11.2538L11.9973 11.0442L12.7166 11.7347H12.3093L13.133 12.7061L12.8548 14.068H12.4191L11.996 12.8171L11.6352 14.068ZM9.3548 14.068L9.633 12.7061L8.80933 11.7347H9.21662L8.49727 11.0442L7.7538 11.7347H8.08618L7.36558 12.7061L7.61347 14.068H8.13515L8.49597 12.8171L8.91907 14.068H9.3548ZM14.883 10.3727L14.6048 11.7347H14.1691L13.746 10.4838L13.3852 11.7347H12.8635L12.6156 10.3727L13.3362 9.40136H13.0038L13.7473 8.71085L14.4666 9.40136H14.0593L14.883 10.3727ZM10.9666 9.40136L10.2473 8.71085L9.5038 9.40136H9.83618L9.11558 10.3727L9.36347 11.7347H9.88515L10.246 10.4838L10.6691 11.7347H11.1048L11.383 10.3727L10.5593 9.40136H10.9666Z" fill="#F7FCFF"/>
</g>
</g>
<rect x="4" y="4.5" width="28" height="28" rx="14" fill="url(#paint0_linear_1302_36540)" style="mix-blend-mode:overlay"/>
<rect x="4.5" y="5" width="27" height="27" rx="13.5" stroke="black" stroke-opacity="0.1"/>
<path d="M42.632 13.77V19.972C42.632 20.7093 42.8233 21.2647 43.206 21.638C43.598 22.0113 44.1393 22.198 44.83 22.198C45.53 22.198 46.0713 22.0113 46.454 21.638C46.846 21.2647 47.042 20.7093 47.042 19.972V13.77H48.638V19.944C48.638 20.7373 48.4653 21.4093 48.12 21.96C47.7747 22.5107 47.3127 22.9213 46.734 23.192C46.1553 23.4627 45.516 23.598 44.816 23.598C44.116 23.598 43.4767 23.4627 42.898 23.192C42.3287 22.9213 41.876 22.5107 41.54 21.96C41.204 21.4093 41.036 20.7373 41.036 19.944V13.77H42.632ZM53.642 23.598C52.9887 23.598 52.4007 23.486 51.878 23.262C51.3553 23.0287 50.9447 22.702 50.646 22.282C50.3473 21.862 50.198 21.372 50.198 20.812H51.906C51.9433 21.232 52.1067 21.5773 52.396 21.848C52.6947 22.1187 53.11 22.254 53.642 22.254C54.1927 22.254 54.622 22.1233 54.93 21.862C55.238 21.5913 55.392 21.246 55.392 20.826C55.392 20.4993 55.294 20.2333 55.098 20.028C54.9113 19.8227 54.6733 19.664 54.384 19.552C54.104 19.44 53.712 19.3187 53.208 19.188C52.5733 19.02 52.0553 18.852 51.654 18.684C51.262 18.5067 50.926 18.236 50.646 17.872C50.366 17.508 50.226 17.0227 50.226 16.416C50.226 15.856 50.366 15.366 50.646 14.946C50.926 14.526 51.318 14.204 51.822 13.98C52.326 13.756 52.9093 13.644 53.572 13.644C54.5147 13.644 55.2847 13.882 55.882 14.358C56.4887 14.8247 56.8247 15.4687 56.89 16.29H55.126C55.098 15.9353 54.93 15.632 54.622 15.38C54.314 15.128 53.908 15.002 53.404 15.002C52.9467 15.002 52.5733 15.1187 52.284 15.352C51.9947 15.5853 51.85 15.9213 51.85 16.36C51.85 16.6587 51.9387 16.906 52.116 17.102C52.3027 17.2887 52.536 17.438 52.816 17.55C53.096 17.662 53.4787 17.7833 53.964 17.914C54.608 18.0913 55.1307 18.2687 55.532 18.446C55.9427 18.6233 56.288 18.8987 56.568 19.272C56.8573 19.636 57.002 20.126 57.002 20.742C57.002 21.2367 56.8667 21.7033 56.596 22.142C56.3347 22.5807 55.9473 22.9353 55.434 23.206C54.93 23.4673 54.3327 23.598 53.642 23.598ZM61.7832 13.77C62.8192 13.77 63.7246 13.9707 64.4992 14.372C65.2832 14.764 65.8852 15.3333 66.3052 16.08C66.7346 16.8173 66.9492 17.6807 66.9492 18.67C66.9492 19.6593 66.7346 20.518 66.3052 21.246C65.8852 21.974 65.2832 22.534 64.4992 22.926C63.7246 23.3087 62.8192 23.5 61.7832 23.5H58.6052V13.77H61.7832ZM61.7832 22.198C62.9219 22.198 63.7946 21.89 64.4012 21.274C65.0079 20.658 65.3112 19.79 65.3112 18.67C65.3112 17.5407 65.0079 16.6587 64.4012 16.024C63.7946 15.3893 62.9219 15.072 61.7832 15.072H60.2012V22.198H61.7832Z" fill="#0C0903"/>
<defs>
<linearGradient id="paint0_linear_1302_36540" x1="18" y1="4.5" x2="18" y2="32.5" gradientUnits="userSpaceOnUse">
<stop stop-color="white" stop-opacity="0.7"/>
<stop offset="1" stop-opacity="0.3"/>
</linearGradient>
<clipPath id="clip0_1302_36540">
<rect x="4" y="4.5" width="28" height="28" rx="14" fill="white"/>
</clipPath>
</defs>
</svg>
